<?xml version="1.0" encoding="utf-8"?>
<!-- Generator: Adobe Illustrator 26.1.0, SVG Export Plug-In . SVG Version: 6.00 Build 0)  -->
<svg version="1.1" id="Layer_1" xmlns="http://www.w3.org/2000/svg" xmlns:xlink="http://www.w3.org/1999/xlink" x="0px" y="0px"
	 viewBox="0 0 16 16" style="enable-background:new 0 0 16 16;" xml:space="preserve">
<style type="text/css">
	.st0{fill:#602606;}
</style>
<path class="st0" d="M5.5,9.4V8.5h1v0.9c0,0.1,0,0.2,0,0.2l0.4,1.6L6,11.9l-0.9-0.6l0.4-1.6C5.5,9.6,5.5,9.5,5.5,9.4z"/>
<path class="st0" d="M9.3,0H4C2.9,0,2,0.9,2,2v12c0,1.1,0.9,2,2,2h8c1.1,0,2-0.9,2-2V4.7c0-0.3-0.1-0.5-0.3-0.7L10,0.3
	C9.8,0.1,9.6,0,9.3,0z M9.5,3.5v-2l3,3h-2C9.9,4.5,9.5,4.1,9.5,3.5z M5.5,3V2h-1V1H6v1h1v1H6v1h1v1H6v1h1v1H5.5V6h-1V5h1V4h-1V3H5.5
	z M5.5,7.5h1c0.6,0,1,0.4,1,1v0.9L7.9,11c0.1,0.4-0.1,0.8-0.4,1.1l-0.9,0.6c-0.3,0.2-0.8,0.2-1.1,0l-0.9-0.6C4.2,11.9,4,11.4,4.1,11
	l0.4-1.6V8.5C4.5,7.9,4.9,7.5,5.5,7.5z"/>
</svg>
