<?xml version="1.0" encoding="utf-8"?>
<!-- Generator: Adobe Illustrator 26.1.0, SVG Export Plug-In . SVG Version: 6.00 Build 0)  -->
<svg version="1.1" id="Layer_1" xmlns="http://www.w3.org/2000/svg" xmlns:xlink="http://www.w3.org/1999/xlink" x="0px" y="0px"
	 viewBox="0 0 16 16" style="enable-background:new 0 0 16 16;" xml:space="preserve">
<style type="text/css">
	.st0{fill:#602606;}
	.st1{fill:#FFFFFF;}
	.st2{fill-rule:evenodd;clip-rule:evenodd;fill:#FFFFFF;}
</style>
<rect class="st0" width="16" height="16"/>
<path class="st1" d="M7.2,12.3c0,0-0.8,0-0.8-0.8s0.8-3.2,4.2-3.2s4.2,2.4,4.2,3.2s-0.8,0.8-0.8,0.8H7.2z M10.5,7.5
	c1.4,0,2.5-1.1,2.5-2.4s-1.1-2.4-2.5-2.4S8,3.9,8,5.2S9.1,7.5,10.5,7.5z"/>
<path class="st2" d="M5.7,12.3c-0.1-0.2-0.2-0.5-0.2-0.8c0-1.1,0.6-2.2,1.6-2.9C6.6,8.4,6,8.3,5.5,8.3c-3.3,0-4.2,2.4-4.2,3.2
	s0.8,0.8,0.8,0.8H5.7z"/>
<path class="st1" d="M5.1,7.5c1.2,0,2.1-0.9,2.1-2s-0.9-2-2.1-2S3,4.5,3,5.6S3.9,7.5,5.1,7.5z"/>
</svg>
