<?xml version="1.0" encoding="utf-8"?>
<!-- Generator: Adobe Illustrator 26.1.0, SVG Export Plug-In . SVG Version: 6.00 Build 0)  -->
<svg version="1.1" id="Layer_1" xmlns="http://www.w3.org/2000/svg" xmlns:xlink="http://www.w3.org/1999/xlink" x="0px" y="0px"
	 viewBox="0 0 16 16" style="enable-background:new 0 0 16 16;" xml:space="preserve">
<style type="text/css">
	.st0{fill:#602606;}
</style>
<path class="st0" d="M16,8c0,4.4-3.6,8-8,8s-8-3.6-8-8s3.6-8,8-8S16,3.6,16,8z M5.5,6h0.8c0.1,0,0.2-0.1,0.3-0.2
	c0.1-0.7,0.5-1.1,1.3-1.1c0.7,0,1.3,0.3,1.3,1.2c0,0.6-0.4,0.9-1,1.4c-0.7,0.5-1.2,1.1-1.2,2l0,0.2c0,0.1,0.1,0.2,0.2,0.2h0.8
	c0.1,0,0.2-0.1,0.2-0.2V9.3c0-0.7,0.3-0.9,1-1.5c0.6-0.5,1.2-1,1.2-2.1c0-1.5-1.3-2.2-2.7-2.2c-1.3,0-2.7,0.6-2.8,2.3
	C5.2,5.9,5.4,6,5.5,6C5.5,6,5.5,6,5.5,6z M7.8,12.5c0.6,0,1-0.4,1-0.9c0-0.6-0.4-0.9-1-0.9c-0.6,0-1,0.4-1,0.9
	C6.8,12.1,7.2,12.5,7.8,12.5L7.8,12.5z"/>
</svg>
